# xmcd CD database file
#
# Track frame offsets:
#	150
#	31913
#	64852
#	91076
#	111501
#	145284
#	172313
#	189556
#	210606
#	232316
#	253430
#	271379
#	293429
#	327398
#
# Disc length: 4552 seconds
#
# Revision: 0
# Processed by: cddbd v1.5.2PL0 Copyright (c) Steve Scherf et al.
# Submitted via: CDex 1.51
#
DISCID=e011c60e
DTITLE=Benny Golson Quartet - Free and Turning Point
DYEAR=1962
DGENRE=Jazz
TTITLE0=Sock Cha Cha ( Free )
TTITLE1=Mad About The Boy
TTITLE2=Just By Myself
TTITLE3=Shades Of Stein
TTITLE4=My Romance
TTITLE5=Just In Time
TTITLE6=How Am I To Know? ( Turning Point )
TTITLE7=The Masquerade Is Over
TTITLE8=Dear Kathy
TTITLE9=Three Little Words
TTITLE10=Turning Point
TTITLE11=Stella By Starlight
TTITLE12=Alone Together
TTITLE13=Impromptune
EXTD=YEAR: 1962
EXTT0=
EXTT1=
EXTT2=
EXTT3=
EXTT4=
EXTT5=
EXTT6=
EXTT7=
EXTT8=
EXTT9=
EXTT10=
EXTT11=
EXTT12=
EXTT13=
PLAYORDER=
